<svg width="80.000000" height="80.000000" viewBox="0 0 80 80" fill="none" xmlns="http://www.w3.org/2000/svg" xmlns:xlink="http://www.w3.org/1999/xlink">
	<desc>
			Created with Pixso.
	</desc>
	<defs>
		<clipPath id="clip3_2">
			<rect width="80.000000" height="80.000000" fill="white" fill-opacity="0"/>
		</clipPath>
	</defs>
	<rect width="80.000000" height="80.000000" fill="#FFFFFF" fill-opacity="0"/>
	<g clip-path="url(#clip3_2)">
		<path d="M73.3333 45.3333C74.0706 45.3333 74.6665 44.736 74.6665 44L74.6665 38.6667C74.6665 37.9308 74.0706 37.3335 73.3333 37.3335L66.6665 37.3335L66.6665 36C66.6665 35.2641 66.0706 34.6667 65.3333 34.6667C64.5959 34.6667 64 35.2641 64 36L64 37.3333L26.6667 37.3333L26.6667 36C26.6667 35.2641 26.0693 34.6667 25.3334 34.6667C24.5975 34.6667 24.0001 35.2641 24.0001 36L24.0001 37.3333L17.3334 37.3333C16.5975 37.3333 16.0001 37.9307 16.0001 38.6666L16.0001 44C16.0001 44.736 16.5975 45.3333 17.3334 45.3333L25.3334 45.3333L65.3334 45.3333L73.3333 45.3333ZM18.6667 42.6667L18.6667 40L72 40L72 42.6667L18.6667 42.6667Z" fill="#D4C17F" fill-opacity="1.000000" fill-rule="nonzero"/>
		<path d="M48 29.3333C45.8441 29.3333 44.4506 30.9718 44.2986 31.16C43.8372 31.7267 43.9227 32.5547 44.4866 33.0214C45.0519 33.4893 45.888 33.4081 46.3613 32.8507C46.3666 32.8414 47.0892 32.0001 47.9998 32.0001C48.9105 32.0001 49.6319 32.8415 49.6319 32.8415C49.896 33.1656 50.2798 33.3336 50.6678 33.3336C50.9638 33.3336 51.2599 33.2362 51.5078 33.035C52.0799 32.5709 52.1652 31.7309 51.7011 31.1603C51.5494 30.972 50.1559 29.3333 48 29.3333Z" fill="#D4C17F" fill-opacity="1.000000" fill-rule="nonzero"/>
		<path d="M73.3333 56C74.0706 56 74.6665 55.4027 74.6665 54.6667L74.6665 49.3335C74.6665 48.5975 74.0706 48.0002 73.3333 48.0002L66.6665 48.0002L66.6665 46.6669C66.6665 45.931 66.0706 45.3336 65.3333 45.3336C64.5959 45.3336 64 45.931 64 46.6669L64 48.0002L26.6667 48.0002L26.6667 46.6669C26.6667 45.931 26.0693 45.3336 25.3334 45.3336C24.5975 45.3336 24.0001 45.931 24.0001 46.6669L24.0001 48.0002L17.3334 48.0002C16.5975 48.0002 16.0001 48.5975 16.0001 49.3335L16.0001 54.6667C16.0001 55.4027 16.5975 56 17.3334 56L25.3334 56L65.3334 56L73.3333 56ZM18.6667 53.3333L18.6667 50.6666L72 50.6666L72 53.3333L18.6667 53.3333Z" fill="#D4C17F" fill-opacity="1.000000" fill-rule="nonzero"/>
		<path d="M54.9653 26.1733C55.2294 26.4986 55.6133 26.6666 56.0013 26.6666C56.2972 26.6666 56.5933 26.5692 56.8413 26.368C57.4133 25.9039 57.4986 25.0639 57.0345 24.4933C56.8825 24.3053 55.4892 22.6666 53.3331 22.6666C51.1771 22.6666 49.7838 24.3052 49.6317 24.4933C49.1703 25.06 49.2558 25.888 49.8197 26.3547C50.385 26.8241 51.2211 26.7414 51.693 26.1841C51.6997 26.1747 52.4224 25.3334 53.333 25.3334C54.2441 25.3333 54.9653 26.1733 54.9653 26.1733Z" fill="#D4C17F" fill-opacity="1.000000" fill-rule="nonzero"/>
		<path d="M1.34009 17.4667C1.40805 18.1481 1.98148 18.6667 2.66681 18.6667L10.6668 18.6667C11.3521 18.6667 11.9254 18.1481 11.9935 17.4667L13.3268 4.13344C13.3641 3.7575 13.2415 3.38547 12.9882 3.10547C12.7362 2.82672 12.3776 2.66687 12.0002 2.66687L8.00006 2.66687L8.00006 1.33328C8.00006 0.597343 7.40274 0 6.66681 0C5.93085 0 5.33353 0.597343 5.33353 1.33328L5.33353 2.66656L1.33353 2.66656C0.956177 2.66656 0.597565 2.82656 0.345551 3.10516C0.0922546 3.38516 -0.0303955 3.75719 0.00695801 4.13313L1.34009 17.4667ZM10.5268 5.33328L9.46008 16L3.87335 16L2.80664 5.33328L10.5268 5.33328Z" fill="#D4C17F" fill-opacity="1.000000" fill-rule="nonzero"/>
		<path d="M37.3333 30.6667C37.3333 32.1573 37.9426 33.5441 39.0492 34.5694C39.3051 34.8067 39.6306 34.9253 39.9559 34.9253C40.3133 34.9253 40.6706 34.7813 40.9333 34.4986C41.4333 33.9586 41.4026 33.1145 40.8626 32.6133C40.3053 32.0986 40 31.4066 40 30.6666C40 29.5625 40.7026 28.5613 41.7506 28.1759C42.1853 28.0159 42.5053 27.6413 42.5959 27.1866C42.688 26.7319 42.5345 26.2625 42.1959 25.9466C41.6385 25.4319 41.3333 24.7398 41.3333 23.9998C41.3333 22.6131 42.4253 21.4531 43.8186 21.3572C44.3306 21.3225 44.7759 20.9986 44.9665 20.5225C45.1559 20.0466 45.0572 19.5039 44.7106 19.1266C44.252 18.6266 44 17.9892 44 17.3333C44 15.9466 45.092 14.7866 46.4853 14.6906C46.9973 14.6559 47.4426 14.332 47.6332 13.8559C47.8226 13.38 47.7239 12.8373 47.3773 12.46C46.92 11.96 46.6667 11.3227 46.6667 10.6667C46.6667 9.47469 47.4787 8.42266 48.64 8.10813C49.0093 8.00813 49.3159 7.75609 49.4853 7.41609C49.6559 7.0761 49.672 6.6775 49.5294 6.32547C49.4 5.99875 49.3334 5.66547 49.3334 5.33344C49.3334 3.86281 50.5294 2.66672 52.0001 2.66672C53.4708 2.66672 54.6668 3.86266 54.6668 5.33344C54.6668 5.66547 54.6001 5.99875 54.4709 6.32547C54.3282 6.6775 54.3442 7.0761 54.515 7.41609C54.6844 7.75609 54.9909 8.00813 55.3603 8.10813C56.5217 8.42281 57.3336 9.47484 57.3336 10.6667C57.3336 11.3227 57.0803 11.96 56.623 12.46C56.2762 12.8373 56.1776 13.38 56.367 13.8559C56.5576 14.3319 57.0029 14.6559 57.515 14.6906C58.9083 14.7866 60.0003 15.9466 60.0003 17.3333C60.0003 17.9892 59.747 18.6266 59.2897 19.1266C58.9429 19.5039 58.8444 20.0466 59.0337 20.5225C59.2244 20.9984 59.6697 21.3225 60.1817 21.3572C61.575 21.4531 62.667 22.6131 62.667 23.9998C62.667 24.7398 62.3617 25.4319 61.8044 25.9466C61.4658 26.2625 61.3123 26.7319 61.4044 27.1866C61.495 27.6413 61.815 28.0159 62.2511 28.1759C63.2978 28.5613 64.0004 29.5627 64.0004 30.6666C64.0004 31.4025 64.5964 31.9998 65.3337 31.9998C66.0711 31.9998 66.667 31.4025 66.667 30.6666C66.667 29.0425 65.9137 27.5319 64.6884 26.5372C65.1098 25.7678 65.3337 24.9025 65.3337 23.9998C65.3337 21.9145 64.107 20.0825 62.3178 19.2158C62.5472 18.6184 62.6672 17.9811 62.6672 17.3331C62.6672 15.2478 61.4404 13.4158 59.6512 12.5491C59.8806 11.9517 60.0006 11.3144 60.0006 10.6664C60.0006 8.72234 58.9312 6.96641 57.2859 6.03703C57.3179 5.80375 57.3339 5.56906 57.3339 5.33297C57.3333 2.39203 54.9414 0 52 0C49.0586 0 46.6667 2.39203 46.6667 5.33328C46.6667 5.56922 46.6826 5.80391 46.7147 6.03734C45.0693 6.96672 44 8.72266 44 10.6667C44 11.3147 44.12 11.952 44.3493 12.5494C42.56 13.4161 41.3334 15.248 41.3334 17.3334C41.3334 17.9814 41.4534 18.6188 41.6828 19.2161C39.8934 20.0828 38.6668 21.9147 38.6668 24.0002C38.6668 24.9028 38.8909 25.7681 39.3122 26.5375C38.0867 27.532 37.3333 29.0427 37.3333 30.6667Z" fill="#D4C17F" fill-opacity="1.000000" fill-rule="nonzero"/>
		<path d="M50.1587 18.5614C50.8361 18.8414 51.6161 18.5187 51.9001 17.8414C51.9254 17.7773 51.9628 17.7067 52.0002 17.6373C52.0375 17.704 52.0722 17.7733 52.0975 17.8359C52.3081 18.3533 52.8069 18.6679 53.3334 18.6679C53.5014 18.6679 53.6708 18.6359 53.8347 18.5679C54.5173 18.292 54.8467 17.5133 54.5694 16.832C54.4214 16.4706 53.6081 14.6667 52 14.6667C50.392 14.6667 49.5786 16.4708 49.4306 16.832C49.1547 17.5106 49.4814 18.2814 50.1587 18.5614Z" fill="#D4C17F" fill-opacity="1.000000" fill-rule="nonzero"/>
		<path d="M78.6667 77.3333L57.3333 77.3333C56.5959 77.3333 56 77.9306 56 78.6665C56 79.4025 56.5959 79.9998 57.3333 79.9998L78.6666 79.9998C79.4039 79.9998 79.9998 79.4025 79.9998 78.6665C79.9998 77.9306 79.4041 77.3333 78.6667 77.3333Z" fill="#D4C17F" fill-opacity="1.000000" fill-rule="nonzero"/>
		<path d="M78.6667 58.6667L66.6667 58.6667L66.6667 57.3335C66.6667 56.5975 66.0708 56.0002 65.3335 56.0002C64.5961 56.0002 64.0002 56.5975 64.0002 57.3335L64.0002 58.6667L26.6667 58.6667L26.6667 57.3335C26.6667 56.5975 26.0694 56.0002 25.3335 56.0002C24.5975 56.0002 24.0002 56.5975 24.0002 57.3335L24.0002 58.6667L12 58.6667C11.2641 58.6667 10.6667 59.2641 10.6667 60L10.6667 65.3333C10.6667 66.0692 11.2641 66.6666 12 66.6666L16 66.6666L16 73.3333C16 74.0693 16.5974 74.6666 17.3333 74.6666C18.0692 74.6666 18.6666 74.0693 18.6666 73.3333L18.6666 66.6666L72 66.6666L72 73.3333C72 74.0693 72.596 74.6666 73.3333 74.6666C74.0706 74.6666 74.6666 74.0693 74.6666 73.3333L74.6666 66.6666L78.6666 66.6666C79.4039 66.6666 79.9999 66.0692 79.9999 65.3333L79.9999 60C80 59.2641 79.4041 58.6667 78.6667 58.6667ZM77.3333 64L13.3333 64L13.3333 61.3333L77.3333 61.3333L77.3333 64Z" fill="#D4C17F" fill-opacity="1.000000" fill-rule="nonzero"/>
		<path d="M20 77.3333L7.99997 77.3333L7.99997 22.6667C7.99997 21.9308 7.40262 21.3334 6.66669 21.3334C5.93076 21.3334 5.3334 21.9308 5.3334 22.6667L5.3334 77.3334L1.3334 77.3334C0.597473 77.3334 0.00012207 77.9308 0.00012207 78.6667C0.00012207 79.4027 0.597321 80 1.33325 80L20 80C20.7359 80 21.3333 79.4027 21.3333 78.6667C21.3333 77.9308 20.7359 77.3333 20 77.3333Z" fill="#D4C17F" fill-opacity="1.000000" fill-rule="nonzero"/>
		<path d="M52 77.3333L49.3333 77.3333C48.5959 77.3333 48 77.9306 48 78.6665C48 79.4025 48.5959 79.9998 49.3333 79.9998L52 79.9998C52.7373 79.9998 53.3333 79.4025 53.3333 78.6665C53.3333 77.9306 52.7373 77.3333 52 77.3333Z" fill="#D4C17F" fill-opacity="1.000000" fill-rule="nonzero"/>
		<path d="M41.3333 77.3333L28 77.3333C27.2641 77.3333 26.6667 77.9306 26.6667 78.6665C26.6667 79.4025 27.2641 80 28 80L41.3333 80C42.0706 80 42.6666 79.4026 42.6666 78.6667C42.6666 77.9307 42.0706 77.3333 41.3333 77.3333Z" fill="#D4C17F" fill-opacity="1.000000" fill-rule="nonzero"/>
	</g>
</svg>
