<svg width="80.000000" height="80.000000" viewBox="0 0 80 80" fill="none" xmlns="http://www.w3.org/2000/svg" xmlns:xlink="http://www.w3.org/1999/xlink">
	<desc>
			Created with Pixso.
	</desc>
	<defs>
		<clipPath id="clip5_62">
			<rect width="80.000000" height="80.000000" fill="white" fill-opacity="0"/>
		</clipPath>
	</defs>
	<rect width="80.000000" height="80.000000" fill="#FFFFFF" fill-opacity="0"/>
	<g clip-path="url(#clip5_62)">
		<path d="M20 68.0011L1.33328 68.0011C0.595947 68.0011 0 68.5984 0 69.3344C0 70.0703 0.595947 70.6677 1.33328 70.6677L20 70.6677C20.7373 70.6677 21.3333 70.0703 21.3333 69.3344C21.3333 68.5984 20.7373 68.0011 20 68.0011Z" fill="#D4C17F" fill-opacity="1.000000" fill-rule="nonzero"/>
		<path d="M16.0001 65.3317C24.8228 65.3317 32.0001 58.1529 32.0001 49.3317C32.0001 44.9143 30.2387 40.8011 27.0401 37.749C26.5095 37.2423 25.6628 37.2623 25.1548 37.7931C24.6468 38.3264 24.6668 39.1704 25.1988 39.6784C27.8641 42.2225 29.3335 45.649 29.3335 49.3317C29.3335 56.6837 23.3521 62.665 16.0002 62.665C8.64838 62.665 2.66696 56.6836 2.66696 49.3317C2.66696 41.9784 8.64838 35.9984 16.0002 35.9984C16.7376 35.9984 17.3335 35.4011 17.3335 34.6651C17.3335 33.9278 16.7376 33.3318 16.0002 33.3318C7.17758 33.3318 0.000244141 40.5092 0.000244141 49.3318C9.15527e-05 58.1529 7.17743 65.3317 16.0001 65.3317Z" fill="#D4C17F" fill-opacity="1.000000" fill-rule="nonzero"/>
		<path d="M22.6667 27.9983L23.3426 27.9983L15.64 46.701C14.3414 46.8783 13.3333 47.9836 13.3333 49.3316C13.3333 50.8022 14.5292 51.9983 16 51.9983C17.4706 51.9983 18.6667 50.8024 18.6667 49.3316C18.6667 48.721 18.4534 48.1663 18.1067 47.7156L25.6308 29.4463L34.0695 41.6983C34.4854 42.305 35.3136 42.4596 35.9228 42.041C36.5308 41.6224 36.6828 40.793 36.2642 40.1863L27.8695 27.9983L30.6668 27.9983C32.8722 27.9983 34.6668 26.2036 34.6668 23.9983C34.6668 21.7916 32.8722 19.9983 30.6668 19.9983L22.6668 19.9983C21.9295 19.9983 21.3336 20.5942 21.3336 21.3316L21.3336 26.6649C21.3333 27.4011 21.9294 27.9983 22.6667 27.9983ZM24 22.665L30.6667 22.665C31.4026 22.665 32 23.2624 32 23.9983C32 24.733 31.4026 25.3316 30.6667 25.3316L24 25.3316L24 22.665Z" fill="#D4C17F" fill-opacity="1.000000" fill-rule="nonzero"/>
		<path d="M62.6667 34.665C62.6667 35.4009 63.2627 35.9983 64 35.9983C71.352 35.9983 77.3333 41.9783 77.3333 49.3316C77.3333 56.6836 71.3519 62.6649 64 62.6649C56.6481 62.6649 50.6667 56.6834 50.6667 49.3316C50.6667 45.3356 52.4361 41.5849 55.524 39.0383C56.0908 38.5703 56.172 37.7303 55.7027 37.1624C55.2347 36.5956 54.3959 36.5117 53.8253 36.9811C50.1239 40.0358 48 44.5358 48 49.3317C48 58.153 55.1773 65.3317 64 65.3317C72.8227 65.3317 80 58.153 80 49.3317C80 40.5091 72.8227 33.3317 64 33.3317C63.2627 33.3317 62.6667 33.9277 62.6667 34.665Z" fill="#D4C17F" fill-opacity="1.000000" fill-rule="nonzero"/>
		<path d="M41.3333 68.0011L28 68.0011C27.2627 68.0011 26.6667 68.5984 26.6667 69.3344C26.6667 70.0703 27.2627 70.6677 28 70.6677L41.3333 70.6677C42.0706 70.6677 42.6666 70.0703 42.6666 69.3344C42.6667 68.5984 42.0706 68.0011 41.3333 68.0011Z" fill="#D4C17F" fill-opacity="1.000000" fill-rule="nonzero"/>
		<path d="M41.3332 42.8544L41.3332 38.665C42.0706 38.665 42.6665 38.0676 42.6665 37.3317C42.6665 36.5944 42.0706 35.9984 41.3332 35.9984L38.6665 35.9984C37.9292 35.9984 37.3332 36.5944 37.3332 37.3317C37.3332 38.0676 37.9292 38.665 38.6665 38.665L38.6665 42.8544C36.3718 43.4503 34.6665 45.5197 34.6665 47.9984C34.6665 50.4758 36.3718 52.5451 38.6665 53.1425L38.6665 57.3319C37.9292 57.3319 37.3332 57.9278 37.3332 58.6651C37.3332 59.4011 37.9292 59.9984 38.6665 59.9984L41.3332 59.9984C42.0706 59.9984 42.6665 59.4011 42.6665 58.6651C42.6665 57.9278 42.0706 57.3319 41.3332 57.3319L41.3332 53.1425C43.6279 52.5451 45.3332 50.4758 45.3332 47.9984C45.3332 45.5197 43.6279 43.4503 41.3332 42.8544ZM39.9999 50.665C38.5306 50.665 37.3332 49.469 37.3332 47.9983C37.3332 46.5276 38.5306 45.3315 39.9999 45.3315C41.4706 45.3315 42.6667 46.5275 42.6667 47.9983C42.6667 49.469 41.4706 50.665 39.9999 50.665Z" fill="#D4C17F" fill-opacity="1.000000" fill-rule="nonzero"/>
		<path d="M61.9454 47.6517C61.5694 48.1117 61.3333 48.6917 61.3333 49.3317C61.3333 50.8023 62.5307 51.9984 64.0001 51.9984C65.4694 51.9984 66.6667 50.8025 66.6667 49.3317C66.6667 48.0117 65.7 46.9211 64.4414 46.709L58.4241 30.665L67.9427 30.665C69.5386 30.665 70.4668 29.389 70.6413 28.2597L71.9733 21.593C72.0519 21.2009 71.9507 20.7944 71.6974 20.4862C71.4441 20.1769 71.0668 19.9983 70.6667 19.9983L58.6668 19.9983C57.9294 19.9983 57.3335 20.5942 57.3335 21.3315C57.3335 22.0675 57.9294 22.6648 58.6668 22.6648L69.04 22.6648L68.0215 27.7662C68.0015 27.8583 67.9441 27.9876 67.9429 27.9983L57.4243 27.9983L53.2496 16.8636C53.2469 16.8583 53.2429 16.8556 53.2416 16.8503C53.239 16.845 53.2402 16.8397 53.239 16.8356L50.5722 10.1689C50.299 9.48483 49.5163 9.15686 48.839 9.42623C48.1549 9.69952 47.8216 10.4756 48.0949 11.1595L50.5243 17.2275L45.5096 26.0034C45.1429 26.6422 45.3655 27.4567 46.0055 27.8222C46.2135 27.9408 46.4415 27.9981 46.6655 27.9981C47.1296 27.9981 47.5788 27.7569 47.8241 27.3261L51.7494 20.4581L54.9574 29.014L44.796 40.4447C44.3054 40.9953 44.356 41.8379 44.9066 42.3273C45.1599 42.554 45.476 42.6647 45.7919 42.6647C46.1586 42.6647 46.5252 42.5126 46.7879 42.2167L56.0158 31.8367L61.9454 47.6517Z" fill="#D4C17F" fill-opacity="1.000000" fill-rule="nonzero"/>
		<path d="M78.6667 68.0011L57.3333 68.0011C56.5959 68.0011 56 68.5984 56 69.3344C56 70.0703 56.5959 70.6677 57.3333 70.6677L78.6666 70.6677C79.4039 70.6677 79.9998 70.0703 79.9998 69.3344C80 68.5984 79.4041 68.0011 78.6667 68.0011Z" fill="#D4C17F" fill-opacity="1.000000" fill-rule="nonzero"/>
		<path d="M52 68.0011L49.3333 68.0011C48.5959 68.0011 48 68.5984 48 69.3344C48 70.0703 48.5959 70.6677 49.3333 70.6677L52 70.6677C52.7373 70.6677 53.3333 70.0703 53.3333 69.3344C53.3333 68.5984 52.7373 68.0011 52 68.0011Z" fill="#D4C17F" fill-opacity="1.000000" fill-rule="nonzero"/>
	</g>
</svg>
