<svg width="80.000000" height="80.000000" viewBox="0 0 80 80" fill="none" xmlns="http://www.w3.org/2000/svg" xmlns:xlink="http://www.w3.org/1999/xlink">
	<desc>
			Created with Pixso.
	</desc>
	<defs>
		<clipPath id="clip3_18">
			<rect width="80.000000" height="80.000000" fill="white" fill-opacity="0"/>
		</clipPath>
	</defs>
	<rect width="80.000000" height="80.000000" fill="#FFFFFF" fill-opacity="0"/>
	<g clip-path="url(#clip3_18)">
		<path d="M57.3333 74.6667L20 74.6667C19.2641 74.6667 18.6667 75.2641 18.6667 76L18.6667 78.6667C18.6667 79.4027 19.2641 80 20 80C20.736 80 21.3333 79.4027 21.3333 78.6667L21.3333 77.3335L57.3333 77.3335C58.0692 77.3335 58.6666 76.7361 58.6666 76.0002C58.6666 75.2643 58.0694 74.6667 57.3333 74.6667Z" fill="#D4C17F" fill-opacity="1.000000" fill-rule="nonzero"/>
		<path d="M29.3333 33.3333C29.3333 34.0692 29.9306 34.6666 30.6665 34.6666L36 34.6666C36.7359 34.6666 37.3333 34.0692 37.3333 33.3333L37.3333 25.3333C37.3333 24.5973 36.7359 24 36 24L30.6667 24C29.9307 24 29.3334 24.5973 29.3334 25.3333L29.3334 33.3333L29.3333 33.3333ZM32 26.6667L34.6667 26.6667L34.6667 32L32 32L32 26.6667Z" fill="#D4C17F" fill-opacity="1.000000" fill-rule="nonzero"/>
		<path d="M17.3333 16L1.33328 16C0.597343 16 0 16.5973 0 17.3333L0 44C0 44.7359 0.597343 45.3333 1.33328 45.3333C2.06922 45.3333 2.66656 44.7359 2.66656 44L2.66656 18.6667L17.3333 18.6667C18.0692 18.6667 18.6666 18.0694 18.6666 17.3334C18.6666 16.5975 18.0694 16 17.3333 16Z" fill="#D4C17F" fill-opacity="1.000000" fill-rule="nonzero"/>
		<path d="M64 65.3333C64 66.0692 64.5973 66.6666 65.3333 66.6666L70.6666 66.6666C71.4025 66.6666 71.9998 66.0692 71.9998 65.3333L71.9998 57.3333C71.9998 56.5973 71.4025 56 70.6666 56L65.3333 56C64.5973 56 64 56.5973 64 57.3333L64 65.3333ZM66.6667 58.6667L69.3334 58.6667L69.3334 64L66.6667 64L66.6667 58.6667Z" fill="#D4C17F" fill-opacity="1.000000" fill-rule="nonzero"/>
		<path d="M6.66672 48C0.0759354 48 0 65.16 0 65.3333C0 68.5533 2.29469 71.2453 5.33328 71.8653L5.33328 78.6667C5.33328 79.4027 5.93063 80 6.66656 80C7.4025 80 7.99985 79.4027 7.99985 78.6667L7.99985 71.8653C11.0384 71.2453 13.3331 68.5533 13.3331 65.3333C13.3333 65.16 13.2573 48 6.66672 48ZM6.66672 69.3333C4.4614 69.3333 2.66672 67.5386 2.66672 65.3333C2.66672 58.6906 4.45078 50.6666 6.66672 50.6666C8.88266 50.6666 10.6667 58.6906 10.6667 65.3333C10.6667 67.5386 8.87203 69.3333 6.66672 69.3333Z" fill="#D4C17F" fill-opacity="1.000000" fill-rule="nonzero"/>
		<path d="M14.6667 40L9.33328 40C8.59734 40 8 40.5973 8 41.3333L8 44C8 44.7359 8.59734 45.3333 9.33328 45.3333C10.0692 45.3333 10.6666 44.7359 10.6666 44L10.6666 42.6667L13.3333 42.6667L13.3333 49.3334C13.3333 50.0694 13.9306 50.6667 14.6666 50.6667C15.4025 50.6667 15.9998 50.0694 15.9998 49.3334L15.9998 41.3334C16 40.5973 15.4027 40 14.6667 40Z" fill="#D4C17F" fill-opacity="1.000000" fill-rule="nonzero"/>
		<path d="M65.3333 34.6667L70.6666 34.6667C71.4025 34.6667 71.9998 34.0694 71.9998 33.3335L71.9998 25.3335C71.9998 24.5975 71.4025 24.0002 70.6666 24.0002L65.3333 24.0002C64.5973 24.0002 64 24.5975 64 25.3335L64 33.3335C64 34.0694 64.5973 34.6667 65.3333 34.6667ZM66.6667 26.6667L69.3334 26.6667L69.3334 32L66.6667 32L66.6667 26.6667Z" fill="#D4C17F" fill-opacity="1.000000" fill-rule="nonzero"/>
		<path d="M14.6667 24L9.33328 24C8.59734 24 8 24.5973 8 25.3333L8 33.3333C8 34.0692 8.59734 34.6666 9.33328 34.6666L14.6666 34.6666C15.4025 34.6666 15.9998 34.0692 15.9998 33.3333L15.9998 25.3333C16 24.5973 15.4027 24 14.6667 24ZM13.3333 32L10.6667 32L10.6667 26.6667L13.3334 26.6667L13.3334 32L13.3333 32Z" fill="#D4C17F" fill-opacity="1.000000" fill-rule="nonzero"/>
		<path d="M42.6667 33.3333C42.6667 34.0692 43.2641 34.6666 44 34.6666L49.3333 34.6666C50.0692 34.6666 50.6666 34.0692 50.6666 33.3333L50.6666 25.3333C50.6666 24.5973 50.0692 24 49.3333 24L44 24C43.2641 24 42.6667 24.5973 42.6667 25.3333L42.6667 33.3333ZM45.3333 26.6667L48 26.6667L48 32L45.3333 32L45.3333 26.6667Z" fill="#D4C17F" fill-opacity="1.000000" fill-rule="nonzero"/>
		<path d="M78.6667 16L62.6667 16C61.9308 16 61.3334 16.5973 61.3334 17.3333C61.3334 18.0692 61.9308 18.6666 62.6667 18.6666L77.3334 18.6666L77.3334 72.2453C76.9148 72.0959 76.4708 72 76.0002 72C75.7695 72 75.5402 72.02 75.3148 72.06C74.3948 70.4026 72.6442 69.3333 70.6669 69.3333C68.6895 69.3333 66.9389 70.4026 66.0189 72.06C65.7936 72.02 65.5642 72 65.3336 72C63.1283 72 61.3336 73.7947 61.3336 76C61.3336 78.2053 63.1283 80 65.3336 80L76 80C78.2053 80 80 78.2053 80 76L80 17.3333C80 16.5973 79.4027 16 78.6667 16ZM76 77.3333L65.3333 77.3333C64.5986 77.3333 64 76.7347 64 76C64 75.2653 64.5986 74.6667 65.3333 74.6667C65.5892 74.6667 65.8319 74.74 66.0559 74.8841C66.4212 75.1187 66.8773 75.1614 67.28 74.9987C67.6827 74.8361 67.98 74.4867 68.0773 74.0641C68.3587 72.8494 69.4241 72 70.6667 72C71.9094 72 72.9747 72.8494 73.2561 74.0641C73.3534 74.4867 73.6508 74.8361 74.0534 74.9987C74.4548 75.1614 74.912 75.1187 75.2775 74.8841C76.1455 74.3241 77.3334 75.0094 77.3334 76C77.3333 76.7347 76.7347 77.3333 76 77.3333Z" fill="#D4C17F" fill-opacity="1.000000" fill-rule="nonzero"/>
		<path d="M44 18.6667L49.3333 18.6667C50.0692 18.6667 50.6666 18.0694 50.6666 17.3335L50.6666 9.33346C50.6666 8.59753 50.0692 8.00018 49.3333 8.00018L44 8.00018C43.2641 8.00018 42.6667 8.59753 42.6667 9.33346L42.6667 17.3335C42.6667 18.0694 43.2641 18.6667 44 18.6667ZM45.3333 10.6667L48 10.6667L48 16L45.3333 16L45.3333 10.6667Z" fill="#D4C17F" fill-opacity="1.000000" fill-rule="nonzero"/>
		<path d="M42.6667 49.3333C42.6667 50.0692 43.2641 50.6666 44 50.6666L49.3333 50.6666C50.0692 50.6666 50.6666 50.0692 50.6666 49.3333L50.6666 41.3333C50.6666 40.5973 50.0692 40 49.3333 40L44 40C43.2641 40 42.6667 40.5973 42.6667 41.3333L42.6667 49.3333ZM45.3333 42.6667L48 42.6667L48 48L45.3333 48L45.3333 42.6667Z" fill="#D4C17F" fill-opacity="1.000000" fill-rule="nonzero"/>
		<path d="M30.6667 18.6667L36 18.6667C36.7359 18.6667 37.3333 18.0694 37.3333 17.3335L37.3333 9.33346C37.3333 8.59753 36.7359 8.00018 36 8.00018L30.6667 8.00018C29.9308 8.00018 29.3334 8.59753 29.3334 9.33346L29.3334 17.3335C29.3333 18.0694 29.9306 18.6667 30.6667 18.6667ZM32 10.6667L34.6667 10.6667L34.6667 16L32 16L32 10.6667Z" fill="#D4C17F" fill-opacity="1.000000" fill-rule="nonzero"/>
		<path d="M39.0533 64.3867C38.8133 64.64 38.6666 64.9867 38.6666 65.3334C38.6666 65.6801 38.8133 66.0267 39.0533 66.2801C39.3066 66.5201 39.6533 66.6668 40 66.6668C40.3467 66.6668 40.6933 66.5201 40.9467 66.2801C41.1867 66.0268 41.3334 65.6801 41.3334 65.3334C41.3334 64.9867 41.1867 64.6401 40.9467 64.3867C40.44 63.8932 39.56 63.8932 39.0533 64.3867Z" fill="#D4C17F" fill-opacity="1.000000" fill-rule="nonzero"/>
		<path d="M29.3333 49.3333C29.3333 50.0692 29.9306 50.6666 30.6665 50.6666L36 50.6666C36.7359 50.6666 37.3333 50.0692 37.3333 49.3333L37.3333 41.3333C37.3333 40.5973 36.7359 40 36 40L30.6667 40C29.9307 40 29.3334 40.5973 29.3334 41.3333L29.3334 49.3333L29.3333 49.3333ZM32 42.6667L34.6667 42.6667L34.6667 48L32 48L32 42.6667Z" fill="#D4C17F" fill-opacity="1.000000" fill-rule="nonzero"/>
		<path d="M26.6667 57.3333C26.6667 58.0692 27.2641 58.6666 28 58.6666L32 58.6666L32 70.6666C32 71.4025 32.5974 71.9998 33.3333 71.9998C34.0692 71.9998 34.6666 71.4025 34.6666 70.6666L34.6666 58.6666L45.3333 58.6666L45.3333 70.6666C45.3333 71.4025 45.9306 71.9998 46.6666 71.9998C47.4025 71.9998 47.9999 71.4025 47.9999 70.6666L47.9999 58.6666L51.9999 58.6666C52.7358 58.6666 53.3332 58.0692 53.3332 57.3333C53.3332 56.5973 52.7358 56 51.9999 56L28 56C27.2641 56 26.6667 56.5973 26.6667 57.3333Z" fill="#D4C17F" fill-opacity="1.000000" fill-rule="nonzero"/>
		<path d="M64 49.3333C64 50.0692 64.5973 50.6666 65.3333 50.6666L70.6666 50.6666C71.4025 50.6666 71.9998 50.0692 71.9998 49.3333L71.9998 41.3333C71.9998 40.5973 71.4025 40 70.6666 40L65.3333 40C64.5973 40 64 40.5973 64 41.3333L64 49.3333ZM66.6667 42.6667L69.3334 42.6667L69.3334 48L66.6667 48L66.6667 42.6667Z" fill="#D4C17F" fill-opacity="1.000000" fill-rule="nonzero"/>
		<path d="M57.3333 0L22.6667 0C21.9308 0 21.3334 0.597343 21.3334 1.33328L21.3334 70.6666C21.3334 71.4025 21.9308 71.9998 22.6667 71.9998C23.4027 71.9998 24 71.4025 24 70.6666L24 2.66656L56 2.66656L56 70.6666C56 71.4025 56.5973 71.9998 57.3333 71.9998C58.0692 71.9998 58.6666 71.4025 58.6666 70.6666L58.6666 1.33328C58.6667 0.597343 58.0694 0 57.3333 0Z" fill="#D4C17F" fill-opacity="1.000000" fill-rule="nonzero"/>
	</g>
</svg>
