<svg width="80.000000" height="80.000000" viewBox="0 0 80 80" fill="none" xmlns="http://www.w3.org/2000/svg" xmlns:xlink="http://www.w3.org/1999/xlink">
	<desc>
			Created with Pixso.
	</desc>
	<defs>
		<clipPath id="clip5_2">
			<rect width="80.000000" height="80.000000" fill="white" fill-opacity="0"/>
		</clipPath>
	</defs>
	<rect width="80.000000" height="80.000000" fill="#FFFFFF" fill-opacity="0"/>
	<g clip-path="url(#clip5_2)">
		<path d="M53.3893 4.62187C53.5719 4.62187 53.756 4.58452 53.9333 4.50452C54.3146 4.3339 54.7013 4.17249 55.0933 4.02453C55.7827 3.76187 56.1293 2.9925 55.8666 2.30453C55.6052 1.61516 54.8346 1.27391 54.1479 1.52984C53.7065 1.69781 53.2705 1.87922 52.8425 2.07125C52.1705 2.37265 51.8693 3.16187 52.1719 3.8339C52.3933 4.32843 52.8786 4.62187 53.3893 4.62187Z" fill="#D4C17F" fill-opacity="1.000000" fill-rule="nonzero"/>
		<path d="M53.3333 33.5377C54.0706 33.5377 54.6666 32.9418 54.6666 32.2044L54.6666 31.9738C54.6666 31.6232 54.6892 31.2791 54.7333 30.9405C54.8292 30.2099 54.3146 29.5406 53.5866 29.4446C52.8346 29.3487 52.1866 29.8632 52.0892 30.5926C52.0307 31.0432 51.9999 31.5085 51.9999 31.974L51.9999 32.2046C52 32.9418 52.596 33.5377 53.3333 33.5377Z" fill="#D4C17F" fill-opacity="1.000000" fill-rule="nonzero"/>
		<path d="M46.6667 33.8671C47.404 33.8671 47.9999 33.2698 47.9999 32.5338L47.9999 31.1792C47.9999 30.4432 47.404 29.8459 46.6667 29.8459C45.9293 29.8459 45.3334 30.4432 45.3334 31.1792L45.3334 32.5338C45.3334 33.2698 45.9293 33.8671 46.6667 33.8671Z" fill="#D4C17F" fill-opacity="1.000000" fill-rule="nonzero"/>
		<path d="M54.3227 12.7778C53.8933 13.0137 53.4733 13.2684 53.0694 13.5392C52.4574 13.9486 52.2921 14.7778 52.7014 15.3898C52.9588 15.7739 53.3814 15.9804 53.8108 15.9804C54.0667 15.9804 54.3241 15.9084 54.5508 15.7551C54.8934 15.5272 55.2467 15.3125 55.6094 15.1125C56.2534 14.7578 56.4894 13.9458 56.1347 13.3019C55.7786 12.6565 54.9692 12.4245 54.3227 12.7778Z" fill="#D4C17F" fill-opacity="1.000000" fill-rule="nonzero"/>
		<path d="M35.4106 12.6418C35.6627 13.0445 36.0959 13.2659 36.54 13.2659C36.7827 13.2659 37.028 13.2006 37.2467 13.0618C37.8708 12.6698 38.06 11.8472 37.6681 11.2245C37.4161 10.8231 37.1548 10.4312 36.8802 10.0472C36.4522 9.44856 35.6216 9.30856 35.0202 9.73918C34.4202 10.1686 34.2828 11.0006 34.7108 11.5992C34.9545 11.9392 35.188 12.2871 35.4106 12.6418Z" fill="#D4C17F" fill-opacity="1.000000" fill-rule="nonzero"/>
		<path d="M59.7879 2.82185C59.8426 2.82185 59.9 2.81779 59.9559 2.81123C60.3679 2.7592 60.7853 2.7192 61.2065 2.68982C61.9425 2.64045 62.4971 2.00576 62.4492 1.27123C62.4012 0.536544 61.7559 -0.019393 61.0306 0.0298262C60.5559 0.0604506 60.0865 0.10717 59.6226 0.165763C58.892 0.257794 58.3733 0.924356 58.4667 1.65514C58.5506 2.32841 59.1253 2.82185 59.7879 2.82185Z" fill="#D4C17F" fill-opacity="1.000000" fill-rule="nonzero"/>
		<path d="M54.844 24.7218C54.344 25.2618 54.3746 26.1059 54.9134 26.6059C55.1721 26.8445 55.496 26.9618 55.8214 26.9618C56.18 26.9618 56.5361 26.8191 56.8 26.5351C57.0773 26.2365 57.3826 25.9537 57.7079 25.6951C58.2853 25.2365 58.3812 24.3978 57.9226 23.8218C57.4653 23.2459 56.6253 23.1471 56.0493 23.6071C55.6187 23.9484 55.2134 24.3245 54.844 24.7218Z" fill="#D4C17F" fill-opacity="1.000000" fill-rule="nonzero"/>
		<path d="M42.752 13.0618C42.972 13.2004 43.2173 13.2659 43.4599 13.2659C43.904 13.2659 44.3372 13.0445 44.5893 12.6418C44.812 12.2871 45.0452 11.9392 45.2893 11.5992C45.7173 11.0006 45.5799 10.1686 44.9799 9.73918C44.3785 9.30856 43.5479 9.44856 43.1199 10.0472C42.8452 10.4312 42.5826 10.8231 42.3319 11.2245C41.9401 11.8472 42.1293 12.6698 42.752 13.0618Z" fill="#D4C17F" fill-opacity="1.000000" fill-rule="nonzero"/>
		<path d="M53.3333 39.9738C54.0706 39.9738 54.6666 39.3765 54.6666 38.6406L54.6666 37.9738C54.6666 37.2379 54.0706 36.6406 53.3333 36.6406C52.5959 36.6406 52 37.2379 52 37.9738L52 38.6406C52 39.3765 52.5959 39.9738 53.3333 39.9738Z" fill="#D4C17F" fill-opacity="1.000000" fill-rule="nonzero"/>
		<path d="M46.6387 27.091C46.7001 27.1004 46.7601 27.1043 46.8201 27.1043C47.476 27.1043 48.0495 26.619 48.1413 25.9496C48.196 25.539 48.2693 25.1337 48.3599 24.7337C48.524 24.0151 48.0732 23.3016 47.3546 23.139C46.636 22.9763 45.9213 23.4257 45.7587 24.1443C45.6519 24.6202 45.564 25.1029 45.4973 25.591C45.3987 26.3204 45.9107 26.9924 46.6387 27.091Z" fill="#D4C17F" fill-opacity="1.000000" fill-rule="nonzero"/>
		<path d="M37.5613 17.1792C37.6946 17.5739 37.8146 17.9725 37.9254 18.3778C38.0868 18.9711 38.6254 19.3619 39.2107 19.3619C39.3266 19.3619 39.444 19.3459 39.5613 19.3139C39.7266 19.2698 39.8707 19.1898 39.9999 19.0953C40.1293 19.19 40.2732 19.27 40.4385 19.3139C40.5559 19.3459 40.6732 19.3619 40.7891 19.3619C41.3745 19.3619 41.9132 18.9712 42.0745 18.3778C42.1851 17.9725 42.3038 17.5737 42.4385 17.1792C42.6771 16.4819 42.3026 15.7245 41.6065 15.4872C40.9665 15.2686 40.2918 15.5819 39.9998 16.1739C39.7077 15.5819 39.0331 15.2686 38.3931 15.4872C37.696 15.7245 37.3227 16.4819 37.5613 17.1792Z" fill="#D4C17F" fill-opacity="1.000000" fill-rule="nonzero"/>
		<path d="M47.7854 8.20842C48.096 8.20842 48.408 8.10045 48.6601 7.8817C48.976 7.60701 49.3001 7.34029 49.6307 7.08576C50.2148 6.63639 50.3227 5.80045 49.8748 5.21639C49.4254 4.63233 48.588 4.5217 48.0054 4.97233C47.6307 5.2603 47.2654 5.55905 46.9107 5.86967C46.3548 6.35233 46.296 7.19498 46.7801 7.75107C47.0427 8.05389 47.4133 8.20842 47.7854 8.20842Z" fill="#D4C17F" fill-opacity="1.000000" fill-rule="nonzero"/>
		<path d="M48.8213 17.5418C48.528 17.9312 48.2507 18.3338 47.9907 18.7471C47.5974 19.3698 47.7854 20.1938 48.408 20.5871C48.6294 20.7244 48.8733 20.7912 49.1174 20.7912C49.5601 20.7912 49.9933 20.5712 50.2468 20.1685C50.4682 19.8179 50.7027 19.4765 50.9521 19.1471C51.3947 18.5591 51.2774 17.7231 50.6894 17.2791C50.1001 16.8351 49.264 16.9565 48.8213 17.5418Z" fill="#D4C17F" fill-opacity="1.000000" fill-rule="nonzero"/>
		<path d="M61.3027 10.6939C60.8094 10.7312 60.3241 10.7898 59.8454 10.8685C59.1187 10.9885 58.6268 11.6753 58.7468 12.4018C58.8535 13.0551 59.4174 13.5178 60.0601 13.5178C60.1321 13.5178 60.2041 13.5124 60.2774 13.5004C60.6841 13.4337 61.0933 13.3845 61.508 13.3524C62.2427 13.2951 62.7921 12.6538 62.7347 11.9192C62.6772 11.1857 62.0519 10.6312 61.3027 10.6939Z" fill="#D4C17F" fill-opacity="1.000000" fill-rule="nonzero"/>
		<path d="M66.236 2.92045C66.6507 2.98717 67.064 3.06576 67.4719 3.15514C67.5693 3.17654 67.664 3.18576 67.7587 3.18576C68.3719 3.18576 68.9227 2.7617 69.0601 2.13904C69.2174 1.41905 68.7627 0.708423 68.0427 0.551079C67.5841 0.449829 67.1227 0.363111 66.6548 0.288424C65.928 0.168424 65.2454 0.668423 65.1294 1.39514C65.0134 2.12186 65.508 2.80576 66.236 2.92045Z" fill="#D4C17F" fill-opacity="1.000000" fill-rule="nonzero"/>
		<path d="M68.5173 11.6525C68.0573 11.4884 67.5893 11.3418 67.1158 11.2165C66.4079 11.0325 65.6759 11.4525 65.4852 12.1645C65.2973 12.8765 65.7212 13.6057 66.4332 13.7951C66.8346 13.9004 67.2291 14.0231 67.6158 14.1631C67.7652 14.2164 67.9158 14.2417 68.0665 14.2417C68.6132 14.2417 69.1265 13.9017 69.3212 13.3576C69.5707 12.6645 69.2093 11.9004 68.5173 11.6525Z" fill="#D4C17F" fill-opacity="1.000000" fill-rule="nonzero"/>
		<path d="M62.124 21.3204C61.388 21.3578 60.8213 21.9831 60.8587 22.7178C60.8946 23.4537 61.472 24.0137 62.256 23.9831C62.6654 23.9631 63.088 23.9751 63.4933 24.0164C63.5401 24.0217 63.5866 24.0231 63.6321 24.0231C64.308 24.0231 64.8854 23.5125 64.9574 22.8271C65.0321 22.0939 64.4988 21.4392 63.7668 21.3631C63.2266 21.3084 62.668 21.2912 62.124 21.3204Z" fill="#D4C17F" fill-opacity="1.000000" fill-rule="nonzero"/>
		<path d="M77.6813 8.87245C77.944 9.16042 78.3054 9.30714 78.6666 9.30714C78.988 9.30714 79.3093 9.19245 79.5652 8.95917C80.1093 8.46323 80.1479 7.61917 79.6519 7.07511C79.4919 6.90042 79.3293 6.72839 79.1652 6.56042C78.6479 6.03371 77.8052 6.02714 77.2799 6.54167C76.7519 7.05636 76.7452 7.90026 77.2585 8.42698C77.4027 8.57245 77.544 8.72182 77.6813 8.87245Z" fill="#D4C17F" fill-opacity="1.000000" fill-rule="nonzero"/>
		<path d="M57.3333 50.6404L41.3333 50.6404C40.596 50.6404 40.0001 51.2377 40.0001 51.9737C40.0001 52.7096 40.596 53.307 41.3333 53.307L57.3333 53.307C61.0719 53.307 64 50.379 64 46.6402L64 43.9735C64 43.2376 63.4041 42.6403 62.6667 42.6403L17.3334 42.6403C16.5961 42.6403 16.0001 43.2376 16.0001 43.9735L16.0001 46.6402C16.0001 50.3788 18.9281 53.307 22.6668 53.307L34.6668 53.307L34.6668 59.9737C34.6668 60.7096 35.2627 61.3069 36.0001 61.3069C36.7374 61.3069 37.3334 60.7096 37.3334 59.9737L37.3334 51.9737C37.3334 51.2377 36.7374 50.6404 36.0001 50.6404L22.6668 50.6404C20.4228 50.6404 18.6668 48.8831 18.6668 46.6404L18.6668 45.3071L61.3335 45.3071L61.3335 46.6404C61.3333 48.8831 59.5772 50.6404 57.3333 50.6404Z" fill="#D4C17F" fill-opacity="1.000000" fill-rule="nonzero"/>
		<path d="M70.6466 31.4018C70.6599 31.5898 70.6666 31.7818 70.6666 31.9739C70.6666 32.7098 71.2625 33.3071 71.9999 33.3071C72.7372 33.3071 73.3332 32.7098 73.3332 31.9739C73.3332 31.7179 73.3238 31.4645 73.3052 31.2125C73.2531 30.4792 72.6292 29.9245 71.8811 29.9765C71.1466 30.0298 70.5946 30.6671 70.6466 31.4018Z" fill="#D4C17F" fill-opacity="1.000000" fill-rule="nonzero"/>
		<path d="M67.8306 24.0831C67.3439 24.6363 67.3974 25.4777 67.9492 25.9657C68.2586 26.2377 68.5478 26.5351 68.8092 26.8498C69.0746 27.1671 69.4533 27.3298 69.836 27.3298C70.136 27.3298 70.4386 27.2285 70.688 27.0218C71.2533 26.5498 71.3307 25.7098 70.8586 25.1432C70.5107 24.7245 70.1239 24.3273 69.7119 23.9645C69.1613 23.4792 68.3186 23.5298 67.8306 24.0831Z" fill="#D4C17F" fill-opacity="1.000000" fill-rule="nonzero"/>
		<path d="M41.3333 30.5657C41.3333 29.8298 40.7374 29.2324 40 29.2324C39.2627 29.2324 38.6667 29.8298 38.6667 30.5657L38.6667 32.0484C38.6667 32.7843 39.2627 33.3816 40 33.3816C40.7374 33.3816 41.3333 32.7843 41.3333 32.0484L41.3333 30.5657Z" fill="#D4C17F" fill-opacity="1.000000" fill-rule="nonzero"/>
		<path d="M40 36.6404C39.2627 36.6404 38.6667 37.2377 38.6667 37.9737L38.6667 38.6404C38.6667 39.3763 39.2627 39.9737 40 39.9737C40.7374 39.9737 41.3333 39.3763 41.3333 38.6404L41.3333 37.9737C41.3333 37.2377 40.7372 36.6404 40 36.6404Z" fill="#D4C17F" fill-opacity="1.000000" fill-rule="nonzero"/>
		<path d="M45.3334 38.6404C45.3334 39.3763 45.9293 39.9737 46.6667 39.9737C47.404 39.9737 47.9999 39.3763 47.9999 38.6404L47.9999 37.9737C47.9999 37.2377 47.404 36.6404 46.6667 36.6404C45.9293 36.6404 45.3334 37.2377 45.3334 37.9737L45.3334 38.6404Z" fill="#D4C17F" fill-opacity="1.000000" fill-rule="nonzero"/>
		<path d="M41.3333 23.9739C41.3333 23.7632 41.336 23.5553 41.3427 23.3459C41.3586 22.7765 41.0107 22.2873 40.5121 22.0833C40.4614 22.0606 40.4041 22.0606 40.3507 22.0447C40.2507 22.0179 40.156 21.9779 40.048 21.9753C40.0347 21.9739 40.0227 21.9739 40.008 21.9739C40.0054 21.9739 40.0027 21.9753 40 21.9753C39.9974 21.9753 39.9947 21.9739 39.9921 21.9739C39.9774 21.9739 39.9653 21.9739 39.9521 21.9753C39.8441 21.9779 39.748 22.0179 39.6494 22.0447C39.5961 22.0606 39.5374 22.0606 39.488 22.0833C38.9894 22.2873 38.6413 22.7765 38.6574 23.3459C38.6641 23.5553 38.6668 23.7632 38.6668 23.9739L38.6668 24.6406C38.6668 25.3765 39.2627 25.9739 40 25.9739C40.7374 25.9739 41.3333 25.3765 41.3333 24.6406L41.3333 23.9739Z" fill="#D4C17F" fill-opacity="1.000000" fill-rule="nonzero"/>
		<path d="M32 38.6404C32 39.3763 32.5959 39.9737 33.3333 39.9737C34.0706 39.9737 34.6666 39.3763 34.6666 38.6404L34.6666 37.9737C34.6666 37.2377 34.0706 36.6404 33.3333 36.6404C32.5959 36.6404 32 37.2377 32 37.9737L32 38.6404Z" fill="#D4C17F" fill-opacity="1.000000" fill-rule="nonzero"/>
		<path d="M33.3333 33.8671C34.0706 33.8671 34.6666 33.2698 34.6666 32.5338L34.6666 31.1792C34.6666 30.4432 34.0706 29.8459 33.3333 29.8459C32.5959 29.8459 32 30.4432 32 31.1792L32 32.5338C32 33.2698 32.5959 33.8671 33.3333 33.8671Z" fill="#D4C17F" fill-opacity="1.000000" fill-rule="nonzero"/>
		<path d="M28.0001 38.6404L28.0001 37.9737C28.0001 37.2377 27.4041 36.6404 26.6668 36.6404C25.9294 36.6404 25.3335 37.2377 25.3335 37.9737L25.3335 38.6404C25.3335 39.3763 25.9294 39.9737 26.6668 39.9737C27.4041 39.9737 28.0001 39.3765 28.0001 38.6404Z" fill="#D4C17F" fill-opacity="1.000000" fill-rule="nonzero"/>
		<path d="M9.31201 27.0218C9.56139 27.2285 9.86264 27.3298 10.164 27.3298C10.5467 27.3298 10.9255 27.1671 11.1908 26.8498C11.4522 26.5351 11.7414 26.2377 12.0508 25.9657C12.6028 25.4777 12.6561 24.6363 12.1693 24.0831C11.684 23.5298 10.8414 23.4763 10.2879 23.9643C9.87592 24.327 9.4892 24.7243 9.13998 25.1431C8.66936 25.7098 8.7467 26.5498 9.31201 27.0218Z" fill="#D4C17F" fill-opacity="1.000000" fill-rule="nonzero"/>
		<path d="M73.3334 63.9738L45.3334 63.9738L45.3334 57.3071C45.3334 56.5712 44.7375 55.9738 44.0001 55.9738C43.2628 55.9738 42.6669 56.5712 42.6669 57.3071L42.6669 65.3071C42.6669 66.043 43.2628 66.6404 44.0001 66.6404L72.0001 66.6404L72.0001 73.3071C72.0001 75.5124 70.2054 77.3071 68.0001 77.3071L12.0002 77.3071C9.79489 77.3071 8.00021 75.5124 8.00021 73.3071L8.00021 66.6404L38.7775 66.6404C39.5148 66.6404 40.1108 66.043 40.1108 65.3071C40.1108 64.5711 39.5148 63.9738 38.7775 63.9738L6.66678 63.9738C5.92944 63.9738 5.3335 64.5711 5.3335 65.3071L5.3335 73.3071C5.3335 76.983 8.32411 79.9738 12.0002 79.9738L68.0001 79.9738C71.676 79.9738 74.6668 76.9832 74.6668 73.3071L74.6668 65.3071C74.6666 64.5711 74.0707 63.9738 73.3334 63.9738Z" fill="#D4C17F" fill-opacity="1.000000" fill-rule="nonzero"/>
		<path d="M32 70.6403L32 73.307C32 74.0429 32.5959 74.6403 33.3333 74.6403C34.0706 74.6403 34.6666 74.0429 34.6666 73.307L34.6666 70.6403C34.6666 69.9043 34.0706 69.307 33.3333 69.307C32.5959 69.307 32 69.9043 32 70.6403Z" fill="#D4C17F" fill-opacity="1.000000" fill-rule="nonzero"/>
		<path d="M1.3934 25.9751C1.37746 25.9737 1.36137 25.9737 1.34543 25.9737C0.632149 25.9737 0.0387192 26.5404 0.0148087 27.2604C0.00543213 27.4978 0.00012207 27.7351 0.00012207 27.9737C0.00012207 28.7096 0.596062 29.307 1.3334 29.307C2.07074 29.307 2.66668 28.7096 2.66668 27.9737C2.66668 27.7657 2.67199 27.5604 2.67871 27.3537C2.70403 26.6178 2.12933 26.0004 1.3934 25.9751Z" fill="#D4C17F" fill-opacity="1.000000" fill-rule="nonzero"/>
		<path d="M7.1534 17.4139C7.45199 17.1259 7.76277 16.8512 8.08277 16.5898C8.6534 16.1231 8.73871 15.2831 8.27214 14.7139C7.80683 14.1445 6.96684 14.0565 6.39621 14.5245C6.01887 14.8339 5.65215 15.1578 5.30293 15.4965C4.77231 16.0072 4.75761 16.8512 5.26824 17.3819C5.52965 17.6525 5.87887 17.7886 6.22824 17.7886C6.56136 17.7884 6.89605 17.6645 7.1534 17.4139Z" fill="#D4C17F" fill-opacity="1.000000" fill-rule="nonzero"/>
		<path d="M3.62817 19.6031C2.97083 19.2751 2.16676 19.539 1.8388 20.1978C1.6202 20.6325 1.41739 21.0792 1.23615 21.5337C0.96286 22.219 1.29614 22.9937 1.9788 23.267C2.14145 23.3323 2.30817 23.3629 2.47348 23.3629C3.00285 23.3629 3.5041 23.0456 3.71207 22.5243C3.86536 22.139 4.03613 21.7617 4.22145 21.3923C4.55207 20.7339 4.28676 19.9339 3.62817 19.6031Z" fill="#D4C17F" fill-opacity="1.000000" fill-rule="nonzero"/>
		<path d="M6.02934 5.56308C6.25465 5.56308 6.48402 5.50574 6.6934 5.38574C7.0548 5.17777 7.42136 4.98168 7.79605 4.79902C8.45605 4.47371 8.72808 3.67371 8.40402 3.01371C8.07871 2.35231 7.27731 2.08169 6.61871 2.40575C6.19199 2.61512 5.7734 2.83778 5.36278 3.07371C4.72543 3.44168 4.50543 4.25637 4.87341 4.89512C5.12012 5.32308 5.56934 5.56308 6.02934 5.56308Z" fill="#D4C17F" fill-opacity="1.000000" fill-rule="nonzero"/>
		<path d="M18.6667 70.6403L18.6667 73.307C18.6667 74.0429 19.2627 74.6403 20 74.6403C20.7374 74.6403 21.3333 74.0429 21.3333 73.307L21.3333 70.6403C21.3333 69.9043 20.7374 69.307 20 69.307C19.2627 69.307 18.6667 69.9043 18.6667 70.6403Z" fill="#D4C17F" fill-opacity="1.000000" fill-rule="nonzero"/>
		<path d="M78.0212 23.2671C78.7038 22.9939 79.0371 22.2192 78.7638 21.5339C78.5824 21.0792 78.3798 20.6325 78.1612 20.1979C77.8318 19.5393 77.0306 19.2765 76.3718 19.6032C75.7132 19.9339 75.4478 20.7339 75.7785 21.3926C75.9639 21.762 76.1345 22.1393 76.2879 22.5246C76.4959 23.046 76.9973 23.3632 77.5253 23.3632C77.6918 23.3631 77.8585 23.3324 78.0212 23.2671Z" fill="#D4C17F" fill-opacity="1.000000" fill-rule="nonzero"/>
		<path d="M79.9853 27.2604C79.9612 26.523 79.3079 25.9324 78.6067 25.9751C77.8707 26.0004 77.2961 26.6177 77.3214 27.3537C77.3281 27.5604 77.3334 27.7657 77.3334 27.9737C77.3334 28.7096 77.9293 29.307 78.6667 29.307C79.404 29.307 79.9999 28.7096 79.9999 27.9737C79.9999 27.7351 79.9945 27.4977 79.9853 27.2604Z" fill="#D4C17F" fill-opacity="1.000000" fill-rule="nonzero"/>
		<path d="M74.6359 3.07389C74.2265 2.83795 73.8079 2.6153 73.3812 2.40592C72.7252 2.08327 71.9212 2.35389 71.5959 3.01389C71.2718 3.67389 71.5438 4.47389 72.2038 4.7992C72.5785 4.98186 72.9452 5.17795 73.3052 5.38592C73.5159 5.50592 73.7452 5.56326 73.9693 5.56326C74.4307 5.56326 74.8799 5.32326 75.1266 4.89529C75.4945 4.25654 75.2745 3.44186 74.6359 3.07389Z" fill="#D4C17F" fill-opacity="1.000000" fill-rule="nonzero"/>
		<path d="M61.3333 73.307L61.3333 70.6403C61.3333 69.9043 60.7374 69.307 60 69.307C59.2627 69.307 58.6667 69.9043 58.6667 70.6403L58.6667 73.307C58.6667 74.0429 59.2627 74.6403 60 74.6403C60.7374 74.6403 61.3333 74.0429 61.3333 73.307Z" fill="#D4C17F" fill-opacity="1.000000" fill-rule="nonzero"/>
		<path d="M48 73.307L48 70.6403C48 69.9043 47.4041 69.307 46.6668 69.307C45.9294 69.307 45.3335 69.9043 45.3335 70.6403L45.3335 73.307C45.3335 74.0429 45.9294 74.6403 46.6668 74.6403C47.404 74.6403 48 74.0429 48 73.307Z" fill="#D4C17F" fill-opacity="1.000000" fill-rule="nonzero"/>
		<path d="M73.604 14.5245C73.032 14.0565 72.192 14.1445 71.728 14.7139C71.2613 15.2833 71.3466 16.1233 71.916 16.5898C72.2374 16.8512 72.548 17.1258 72.8466 17.4139C73.104 17.6645 73.4387 17.7886 73.7719 17.7886C74.1213 17.7886 74.4693 17.6526 74.7319 17.3819C75.2426 16.8512 75.2279 16.0072 74.6973 15.4965C74.348 15.1578 73.9813 14.8339 73.604 14.5245Z" fill="#D4C17F" fill-opacity="1.000000" fill-rule="nonzero"/>
		<path d="M8.11877 29.9765C7.35737 29.9259 6.74675 30.4791 6.69347 31.2124C6.67612 31.4644 6.66675 31.7177 6.66675 31.9738C6.66675 32.7097 7.26269 33.3071 8.00003 33.3071C8.73737 33.3071 9.33331 32.7097 9.33331 31.9738C9.33331 31.7818 9.34003 31.5898 9.35331 31.4018C9.40549 30.6671 8.85346 30.0298 8.11877 29.9765Z" fill="#D4C17F" fill-opacity="1.000000" fill-rule="nonzero"/>
		<path d="M26.4134 29.4445C25.6854 29.5404 25.1707 30.2098 25.2666 30.9404C25.3107 31.279 25.3334 31.6231 25.3334 31.9737L25.3334 32.2043C25.3334 32.9417 25.9293 33.5376 26.6666 33.5376C27.404 33.5376 27.9999 32.9417 27.9999 32.2043L27.9999 31.9737C27.9999 31.5084 27.9705 31.0431 27.9105 30.5923C27.8134 29.8631 27.1573 29.3471 26.4134 29.4445Z" fill="#D4C17F" fill-opacity="1.000000" fill-rule="nonzero"/>
		<path d="M24.9067 4.02453C25.2987 4.17249 25.6853 4.3339 26.0667 4.50452C26.244 4.58452 26.4281 4.62187 26.6107 4.62187C27.1201 4.62187 27.6067 4.32859 27.8281 3.8339C28.1307 3.16187 27.8295 2.3725 27.1574 2.07125C26.7295 1.87922 26.2934 1.69797 25.8521 1.52984C25.1681 1.27391 24.3948 1.61516 24.1335 2.30453C23.8707 2.9925 24.2173 3.76187 24.9067 4.02453Z" fill="#D4C17F" fill-opacity="1.000000" fill-rule="nonzero"/>
		<path d="M24.3907 15.1125C24.7521 15.3125 25.1066 15.5272 25.4493 15.7551C25.6773 15.9084 25.9333 15.9804 26.1893 15.9804C26.6187 15.9804 27.0413 15.7737 27.2987 15.3898C27.708 14.7778 27.5427 13.9486 26.9307 13.5392C26.5254 13.2686 26.1066 13.0139 25.6774 12.7778C25.0307 12.4245 24.2215 12.6565 23.8654 13.3019C23.5107 13.9458 23.7466 14.7578 24.3907 15.1125Z" fill="#D4C17F" fill-opacity="1.000000" fill-rule="nonzero"/>
		<path d="M1.3334 9.30715C1.6948 9.30715 2.05605 9.16043 2.31871 8.87247C2.45605 8.72184 2.59746 8.57247 2.74136 8.42716C3.25465 7.90044 3.24667 7.05653 2.71996 6.54185C2.1959 6.02716 1.35324 6.03654 0.834648 6.5606C0.670586 6.72857 0.507935 6.9006 0.347931 7.07528C-0.148003 7.61935 -0.109413 8.46325 0.434654 8.95934C0.690742 9.19247 1.01199 9.30715 1.3334 9.30715Z" fill="#D4C17F" fill-opacity="1.000000" fill-rule="nonzero"/>
		<path d="M22.292 25.6951C22.6173 25.9537 22.9226 26.2365 23.2 26.5351C23.464 26.8192 23.82 26.9618 24.1786 26.9618C24.5026 26.9618 24.8279 26.8445 25.0865 26.6059C25.6253 26.1059 25.6559 25.2618 25.1559 24.7218C24.7865 24.3245 24.3812 23.9485 23.9506 23.6071C23.3706 23.1485 22.5332 23.2457 22.0773 23.8218C21.6187 24.3978 21.7147 25.2365 22.292 25.6951Z" fill="#D4C17F" fill-opacity="1.000000" fill-rule="nonzero"/>
		<path d="M29.7534 20.1684C30.0067 20.5711 30.4401 20.7911 30.8828 20.7911C31.1268 20.7911 31.3708 20.7243 31.5922 20.587C32.2148 20.1937 32.4028 19.3696 32.0095 18.747C31.7481 18.3337 31.4707 17.9311 31.1789 17.5417C30.7348 16.9564 29.9003 16.835 29.3109 17.279C28.7229 17.7231 28.6056 18.559 29.0482 19.147C29.2973 19.4765 29.532 19.8178 29.7534 20.1684Z" fill="#D4C17F" fill-opacity="1.000000" fill-rule="nonzero"/>
		<path d="M30.3693 7.08576C30.7 7.34045 31.024 7.60717 31.34 7.8817C31.592 8.1017 31.904 8.20842 32.2146 8.20842C32.5867 8.20842 32.9573 8.05373 33.22 7.75107C33.704 7.19514 33.6453 6.35248 33.0893 5.86967C32.7346 5.55905 32.3693 5.2603 31.9946 4.97233C31.412 4.5217 30.576 4.63233 30.1253 5.21639C29.6773 5.80045 29.7854 6.63654 30.3693 7.08576Z" fill="#D4C17F" fill-opacity="1.000000" fill-rule="nonzero"/>
		<path d="M12.2414 3.18576C12.3361 3.18576 12.4308 3.17639 12.5267 3.15514C12.9361 3.06576 13.3494 2.98717 13.7641 2.92045C14.492 2.80576 14.9867 2.12186 14.8708 1.39514C14.7561 0.668422 14.0749 0.167172 13.3455 0.288423C12.8775 0.36311 12.4149 0.449828 11.9575 0.551078C11.2375 0.708422 10.7828 1.41905 10.9402 2.13904C11.0774 2.76186 11.6281 3.18576 12.2414 3.18576Z" fill="#D4C17F" fill-opacity="1.000000" fill-rule="nonzero"/>
		<path d="M18.7934 2.68981C19.2148 2.71918 19.632 2.75918 20.044 2.81122C20.1 2.81793 20.1573 2.82184 20.212 2.82184C20.8747 2.82184 21.4493 2.32856 21.5332 1.65512C21.6265 0.9245 21.1079 0.257783 20.3773 0.165752C19.9133 0.107159 19.444 0.0604401 18.9706 0.0298147C18.252 -0.0234661 17.5986 0.536532 17.5506 1.27122C17.5028 2.00575 18.0573 2.64043 18.7934 2.68981Z" fill="#D4C17F" fill-opacity="1.000000" fill-rule="nonzero"/>
		<path d="M32.6454 23.1392C31.9268 23.3018 31.476 24.0151 31.6387 24.7338C31.7307 25.1338 31.8027 25.5391 31.8587 25.9498C31.9507 26.6191 32.5227 27.1044 33.1801 27.1044C33.2401 27.1044 33.3001 27.1004 33.3601 27.0912C34.0894 26.9926 34.6015 26.3205 34.5027 25.5912C34.436 25.1032 34.348 24.6206 34.2413 24.1445C34.0787 23.4271 33.3601 22.9777 32.6454 23.1392Z" fill="#D4C17F" fill-opacity="1.000000" fill-rule="nonzero"/>
		<path d="M11.9334 14.2419C12.0828 14.2419 12.2348 14.2165 12.3841 14.1633C12.7708 14.0233 13.1655 13.9006 13.5667 13.7953C14.2788 13.6059 14.7027 12.8767 14.5147 12.1647C14.3253 11.4526 13.5947 11.0326 12.8841 11.2167C12.4108 11.342 11.9427 11.4887 11.4827 11.6526C10.7906 11.9006 10.4294 12.6647 10.6786 13.3579C10.8734 13.9019 11.3867 14.2419 11.9334 14.2419Z" fill="#D4C17F" fill-opacity="1.000000" fill-rule="nonzero"/>
		<path d="M18.492 13.3525C18.9067 13.3845 19.3161 13.4339 19.7227 13.5004C19.7959 13.5125 19.868 13.5178 19.94 13.5178C20.5814 13.5178 21.1467 13.0551 21.2533 12.4018C21.3733 11.6751 20.8812 10.9886 20.1547 10.8686C19.6761 10.79 19.1906 10.7312 18.6973 10.6939C17.972 10.6298 17.3227 11.1845 17.2653 11.9192C17.2081 12.6539 17.7573 13.2951 18.492 13.3525Z" fill="#D4C17F" fill-opacity="1.000000" fill-rule="nonzero"/>
		<path d="M16.3681 24.0231C16.4134 24.0231 16.4601 24.0217 16.5066 24.0164C16.912 23.975 17.3346 23.9631 17.744 23.9831C18.5107 24.0178 19.1054 23.4537 19.1413 22.7178C19.1787 21.9831 18.612 21.3578 17.876 21.3204C17.3307 21.2911 16.772 21.3084 16.2334 21.3631C15.5013 21.439 14.9681 22.0937 15.0427 22.8272C15.1146 23.5125 15.692 24.0231 16.3681 24.0231Z" fill="#D4C17F" fill-opacity="1.000000" fill-rule="nonzero"/>
	</g>
</svg>
