<svg width="14.708099" height="21.000000" viewBox="0 0 14.7081 21" fill="none" xmlns="http://www.w3.org/2000/svg" xmlns:xlink="http://www.w3.org/1999/xlink">
	<desc>
			Created with Pixso.
	</desc>
	<defs/>
	<path d="M7.42245 4.60217C5.94247 4.60217 4.73785 5.80679 4.73785 7.28676C4.73785 8.76674 5.94247 9.97134 7.42245 9.97134C8.9024 9.97134 10.107 8.76674 10.107 7.28676C10.107 5.80679 8.9024 4.60217 7.42245 4.60217ZM7.42245 9.20433C6.36511 9.20433 5.50488 8.3441 5.50488 7.28676C5.50488 6.22942 6.36511 5.3692 7.42245 5.3692C8.4798 5.3692 9.34 6.22942 9.34 7.28676C9.34 8.3441 8.4798 9.20433 7.42245 9.20433Z" fill="#FFFFFF" fill-opacity="1.000000" fill-rule="nonzero"/>
	<path d="M12.5552 2.15419C11.1661 0.765106 9.31915 0 7.3548 0C5.39005 0 3.54346 0.765106 2.15436 2.15419C-0.416321 4.72449 -0.735779 9.56059 1.46249 12.4906L7.3548 21L13.2383 12.5025C15.4454 9.56058 15.1259 4.72449 12.5552 2.15419ZM12.6162 12.0542L7.3548 19.6523L2.08493 12.0423C0.0910645 9.38379 0.37677 5.01634 2.69702 2.69647C3.94113 1.45236 5.59525 0.767029 7.3548 0.767029C9.11435 0.767029 10.7684 1.45236 12.0129 2.69647C14.3332 5.01634 14.6189 9.38379 12.6162 12.0542Z" fill="#FFFFFF" fill-opacity="1.000000" fill-rule="nonzero"/>
</svg>
