<svg width="20.999939" height="21.000015" viewBox="0 0 20.9999 21" fill="none" xmlns="http://www.w3.org/2000/svg" xmlns:xlink="http://www.w3.org/1999/xlink">
	<desc>
			Created with Pixso.
	</desc>
	<defs/>
	<path d="M20.9856 17.2843C20.9188 16.7797 20.6275 16.3446 20.1864 16.0907L15.0057 13.1078C14.3711 12.7424 13.5662 12.8488 13.0482 13.3667L12.0278 14.3871C11.7563 14.6587 11.3266 14.6827 11.0287 14.4429C10.2242 13.7956 9.43214 13.0832 8.67448 12.3255C7.91682 11.5678 7.20441 10.7758 6.55706 9.97128C6.31726 9.67331 6.34126 9.24374 6.61289 8.97215L7.6333 7.95171C8.15117 7.43388 8.25766 6.629 7.89223 5.99434L4.90934 0.813568C4.65535 0.372437 4.22029 0.0811615 3.71567 0.0144043C3.211 -0.0525055 2.71513 0.115814 2.35519 0.475754L0.817589 2.0134C-0.255569 3.08659 -0.272804 5.04967 0.769058 7.54109C1.77087 9.93668 3.64043 12.5738 6.03325 14.9667C8.42616 17.3596 11.0633 19.2292 13.4589 20.231C14.6853 20.7438 15.7835 21.0001 16.7108 21C17.6673 21 18.4417 20.7273 18.9866 20.1824L20.5242 18.6448C20.8841 18.2848 21.0523 17.7889 20.9856 17.2843ZM14.6662 13.6973L19.847 16.6802C20.1032 16.8277 20.2724 17.0804 20.3111 17.3735C20.3437 17.6195 20.2798 17.8617 20.1349 18.0569L13.2497 14.1273L13.5293 13.8477C13.8301 13.547 14.2977 13.4852 14.6662 13.6973ZM3.62641 0.688873C3.91954 0.727661 4.17222 0.896835 4.31971 1.15305L7.30261 6.33383C7.51487 6.70242 7.45301 7.16995 7.15226 7.47066L6.89541 7.72751L2.94431 0.865082C3.10582 0.745483 3.29899 0.680542 3.50037 0.680542C3.54214 0.680542 3.58427 0.683304 3.62641 0.688873ZM18.5055 19.7013C17.6529 20.5539 15.9092 20.5182 13.7214 19.6033C11.4056 18.6348 8.8461 16.8173 6.51438 14.4857C4.18265 12.1539 2.36517 9.59444 1.39673 7.27863C0.481777 5.09081 0.446083 3.34708 1.29868 2.49443L2.44014 1.35294L6.39718 8.22574L6.13181 8.49112C5.61407 9.0089 5.56899 9.82855 6.02699 10.3979C6.68959 11.2213 7.4185 12.0317 8.19335 12.8066C8.96829 13.5815 9.77871 14.3104 10.6021 14.973C11.1713 15.431 11.991 15.386 12.5089 14.8681L12.751 14.626L19.6458 18.561L18.5055 19.7013Z" fill="#FFFFFF" fill-opacity="1.000000" fill-rule="nonzero"/>
</svg>
