<svg width="178.000000" height="69.000000" viewBox="0 0 178 69" fill="none" xmlns="http://www.w3.org/2000/svg" xmlns:xlink="http://www.w3.org/1999/xlink">
	<desc>
			Created with Pixso.
	</desc>
	<defs/>
	<path d="M48.8376 15.3652L53.2322 15.3652L53.2322 17.9229L48.8376 17.9229L48.8376 35L45.8142 35L45.8142 17.9229L42.6501 17.9229L42.6501 15.3652L45.8142 15.3652L45.8142 12.6494C45.8142 9.27441 48.53 7.58691 51.3425 7.58691C52.8279 7.58691 53.7419 7.89453 54.2077 8.10547L53.3376 10.707C53.03 10.6104 52.5202 10.3994 51.6501 10.3994C49.655 10.3994 48.8376 11.4277 48.8376 13.3701L48.8376 15.3652ZM18.5098 35L3.17285 35L3.17285 8.81738L6.33691 8.81738L6.33691 32.1875L18.5098 32.1875L18.5098 35ZM74.5528 35L71.3888 35L71.3888 8.81738L74.5528 8.81738L74.5528 20.4805L88.5186 20.4805L88.5186 8.81738L91.6915 8.81738L91.6915 35L88.5186 35L88.5186 23.293L74.5528 23.293L74.5528 35ZM61.8263 15.3652L66.0186 15.3652L66.0186 17.9229L61.8263 17.9229L61.8263 29.375C61.8263 31.9326 63.1007 32.3369 64.4278 32.3369C65.0958 32.3369 65.5089 32.2402 65.7638 32.1875L66.379 34.8945C65.9659 35.0527 65.254 35.2549 64.129 35.2549C61.5714 35.2549 58.8028 33.6201 58.8028 30.1924L58.8028 17.9229L55.8409 17.9229L55.8409 15.3652L58.8028 15.3652L58.8028 10.6631L61.8263 10.6631L61.8263 15.3652ZM39.8848 25.2881C39.8848 31.3701 36.3076 35.4131 30.9902 35.4131C25.6729 35.4131 22.0869 31.3701 22.0869 25.2881C22.0869 19.1445 25.6729 15.1104 30.9902 15.1104C36.3076 15.1104 39.8848 19.1445 39.8848 25.2881ZM114.493 25.2881C114.493 31.3701 110.916 35.4131 105.598 35.4131C100.281 35.4131 96.6949 31.3701 96.6949 25.2881C96.6949 19.1445 100.281 15.1104 105.598 15.1104C110.916 15.1104 114.493 19.1445 114.493 25.2881ZM146.962 15.1104C150.855 15.1104 152.974 16.9736 153.923 19.7598L151.207 20.5244C150.688 19.1709 149.599 17.7119 146.962 17.7119C144.562 17.7119 142.77 18.9424 142.77 20.6299C142.77 22.1416 143.824 22.915 146.145 23.4951L149.062 24.207C152.569 25.0684 154.274 26.791 154.274 29.5244C154.274 32.917 151.172 35.4131 146.61 35.4131C142.594 35.4131 139.843 33.6289 139.14 30.2979L142.005 29.5771C142.541 31.6865 144.088 32.75 146.558 32.75C149.37 32.75 151.163 31.3701 151.163 29.6826C151.163 28.3291 150.223 27.3799 148.245 26.9229L144.976 26.1494C141.363 25.3057 139.755 23.4951 139.755 20.7881C139.755 17.457 142.822 15.1104 146.962 15.1104ZM174.886 30.4473C173.963 33.418 171.054 35.4131 167.063 35.4131C161.386 35.4131 157.905 31.3701 157.905 25.332C157.905 19.3027 161.438 15.1104 166.756 15.1104C170.843 15.1104 175.193 17.6152 175.193 24.9277L175.193 26.2021L160.937 26.2021C161.078 30.4121 163.521 32.6973 167.063 32.6973C169.428 32.6973 171.203 31.6777 171.968 29.6299L174.886 30.4473ZM126.407 32.3369C128.658 32.3369 131.47 30.6494 131.47 26.9756L131.47 15.3652L134.485 15.3652L134.485 35L131.47 35L131.47 31.6777L131.268 31.6777C130.345 33.6729 128.403 35.2549 125.441 35.2549C121.758 35.2549 119.095 32.8555 119.095 27.8369L119.095 15.3652L122.11 15.3652L122.11 27.6348C122.11 30.5 123.903 32.3369 126.407 32.3369ZM25.1104 25.2881C25.1104 29.2256 26.9473 32.6973 30.9902 32.6973C35.0244 32.6973 36.8701 29.2256 36.8701 25.2881C36.8701 21.3506 35.0244 17.8174 30.9902 17.8174C26.9473 17.8174 25.1104 21.3506 25.1104 25.2881ZM99.7183 25.2881C99.7183 29.2256 101.555 32.6973 105.598 32.6973C109.632 32.6973 111.478 29.2256 111.478 25.2881C111.478 21.3506 109.632 17.8174 105.598 17.8174C101.555 17.8174 99.7183 21.3506 99.7183 25.2881ZM166.756 17.8174C163.302 17.8174 161.139 20.542 160.937 23.6006L172.126 23.6006C172.126 20.2695 170.025 17.8174 166.756 17.8174Z" fill="#FFFFFF" fill-opacity="1.000000" fill-rule="evenodd"/>
	<path d="M49.5614 55.0658Q50.0206 54.6066 50.0998 53.7676L49.1037 53.7676Q49.0451 54.3916 48.7258 54.626Q48.4094 54.8604 47.8557 54.8604Q47.2316 54.8604 46.9504 54.6377Q46.6691 54.415 46.6076 53.7676L45.6232 53.7676Q45.6848 54.6787 46.1711 55.1357Q46.6574 55.5928 47.8322 55.5928Q48.9719 55.5928 49.4934 55.1299Q49.5284 55.0988 49.5614 55.0658ZM40.4685 63.0254Q40.9196 62.0352 40.9196 60.7051Q40.9196 59.3721 40.4685 58.3818Q40.1755 57.7345 39.6996 57.2775Q39.4476 57.0354 39.1443 56.8467Q38.2683 56.2988 36.9851 56.2988Q35.6404 56.2988 34.7585 56.8525Q34.4038 57.0741 34.1215 57.3659Q33.7022 57.7993 33.4431 58.3877Q33.0124 59.3721 33.0124 60.6934Q33.0124 62.0234 33.4431 63.0195Q33.7123 63.6381 34.1545 64.0861Q34.4243 64.3595 34.7585 64.5693Q35.6404 65.1201 36.9734 65.1201Q38.2683 65.1201 39.1443 64.5693Q39.4561 64.3722 39.7138 64.1197Q40.1798 63.6631 40.4685 63.0254ZM75.3675 63.0254Q75.8186 62.0352 75.8186 60.7051Q75.8186 59.3721 75.3675 58.3818Q75.0745 57.7345 74.5986 57.2775Q74.3466 57.0354 74.0433 56.8467Q73.1673 56.2988 71.8841 56.2988Q70.5394 56.2988 69.6575 56.8525Q69.3028 57.0741 69.0206 57.3659Q68.6012 57.7993 68.3421 58.3877Q67.9114 59.3721 67.9114 60.6934Q67.9114 62.0234 68.3421 63.0195Q68.6113 63.6381 69.0535 64.0861Q69.3233 64.3595 69.6575 64.5693Q70.5394 65.1201 71.8724 65.1201Q73.1673 65.1201 74.0433 64.5693Q74.3551 64.3722 74.6128 64.1197Q75.0788 63.6631 75.3675 63.0254ZM130.435 57.6798Q131.099 57.2598 132.028 57.2598Q132.602 57.2598 133.088 57.4033Q133.575 57.5469 133.97 57.7285L134.404 56.8174Q133.396 56.3135 132.04 56.3135Q130.718 56.3135 129.793 56.8701Q129.384 57.1167 129.063 57.4484Q128.659 57.8655 128.395 58.417Q127.923 59.4072 127.923 60.7051Q127.923 62.0469 128.36 63.043Q128.648 63.697 129.125 64.1552Q129.375 64.3949 129.675 64.5811Q130.551 65.1201 131.858 65.1201Q132.567 65.1201 133.077 65.0352Q133.397 64.9837 133.705 64.893Q133.888 64.8392 134.067 64.7715L134.067 63.8369Q133.587 63.9805 133.083 64.0771Q132.579 64.1709 132.016 64.1709Q130.873 64.1709 130.172 63.6139Q129.968 63.4516 129.801 63.2422Q129.063 62.3105 129.063 60.7168Q129.063 59.1084 129.854 58.1855Q130.113 57.8833 130.435 57.6798ZM0.131836 56.4307L3.45703 60.5967L0.0117188 65L1.24805 65L4.6084 60.6553L4.6084 65L5.63965 65L5.63965 60.6553L8.98828 65L10.2246 65L6.79102 60.585L10.1162 56.4307L8.91504 56.4307L5.63965 60.585L5.63965 56.4307L4.6084 56.4307L4.6084 60.585L1.33301 56.4307L0.131836 56.4307ZM13.8706 56.4307L12.8628 56.4307L12.8628 65L14.064 65L18.7925 57.8721L18.8394 57.8721Q18.8276 58.0508 18.8042 58.4727Q18.7808 58.8916 18.7603 59.3955Q18.7427 59.8994 18.7427 60.3447L18.7427 65L19.7534 65L19.7534 56.4307L18.5523 56.4307L13.8355 63.5234L13.7886 63.5234Q13.812 63.333 13.8296 62.9258Q13.8472 62.5156 13.8589 62.0234Q13.8706 61.5312 13.8706 61.1357L13.8706 56.4307ZM28.596 65L29.677 65L29.677 56.4307L24.9836 56.4307Q24.8167 57.7637 24.6526 58.9414Q24.4915 60.1162 24.3538 60.998Q24.2161 61.8799 24.1194 62.3369Q24.0374 62.7676 23.9172 63.207Q23.7971 63.6436 23.5862 63.9395Q23.4803 64.0866 23.3366 64.1598Q23.1943 64.2324 23.0149 64.2324Q22.8245 64.2324 22.6545 64.1914Q22.4876 64.1475 22.3557 64.0889L22.3557 64.9883Q22.511 65.0469 22.7219 65.0879Q22.9329 65.1318 23.135 65.1318Q23.7473 65.1318 24.1252 64.8447Q24.5032 64.5547 24.7317 63.9922Q24.9602 63.4268 25.1155 62.624Q25.2473 62 25.3792 61.1123Q25.511 60.2246 25.6428 59.2461Q25.7747 58.2676 25.8831 57.3799L28.596 57.3799L28.596 65ZM45.2746 56.4307L44.2668 56.4307L44.2668 65L45.468 65L50.1965 57.8721L50.2434 57.8721Q50.2316 58.0508 50.2082 58.4727Q50.1848 58.8916 50.1643 59.3955Q50.1467 59.8994 50.1467 60.3447L50.1467 65L51.1574 65L51.1574 56.4307L49.9563 56.4307L45.2395 63.5234L45.1926 63.5234Q45.216 63.333 45.2336 62.9258Q45.2512 62.5156 45.2629 62.0234Q45.2746 61.5312 45.2746 61.1357L45.2746 56.4307ZM64.6831 65L65.978 65L62.0903 60.5967L65.811 56.4307L64.5864 56.4307L60.8071 60.585L60.8071 56.4307L59.7261 56.4307L59.7261 65L60.8071 65L60.8071 60.6553L64.6831 65ZM80.115 57.4883L82.9363 65L83.824 65L86.6775 57.5L86.7273 57.5Q86.7039 57.8838 86.6717 58.4961Q86.6424 59.1084 86.6424 59.7324L86.6424 65L87.7117 65L87.7117 56.4307L86.1267 56.4307L83.4402 63.4531L83.3904 63.4531L80.7508 56.4307L79.1541 56.4307L79.1541 65L80.1502 65L80.1502 59.8027Q80.1502 59.1201 80.1267 58.4902Q80.1033 57.8604 80.0682 57.4883L80.115 57.4883ZM91.4781 56.4307L91.4781 65L92.5592 65L92.5592 57.3799L96.8424 57.3799L96.8424 65L97.9117 65L97.9117 56.4307L91.4781 56.4307ZM106.779 65L107.86 65L107.86 56.4307L103.167 56.4307Q103 57.7637 102.836 58.9414Q102.674 60.1162 102.537 60.998Q102.399 61.8799 102.302 62.3369Q102.22 62.7676 102.1 63.207Q101.98 63.6436 101.769 63.9395Q101.663 64.0866 101.52 64.1598Q101.377 64.2324 101.198 64.2324Q101.007 64.2324 100.838 64.1914Q100.671 64.1475 100.539 64.0889L100.539 64.9883Q100.694 65.0469 100.905 65.0879Q101.116 65.1318 101.318 65.1318Q101.93 65.1318 102.308 64.8447Q102.686 64.5547 102.915 63.9922Q103.143 63.4268 103.299 62.624Q103.43 62 103.562 61.1123Q103.694 60.2246 103.826 59.2461Q103.958 58.2676 104.066 57.3799L106.779 57.3799L106.779 65ZM111.626 65L116.416 65L116.416 64.0508L112.707 64.0508L112.707 60.9922L116.199 60.9922L116.199 60.0547L112.707 60.0547L112.707 57.3799L116.416 57.3799L116.416 56.4307L111.626 56.4307L111.626 65ZM124.695 65L125.99 65L122.102 60.5967L125.823 56.4307L124.598 56.4307L120.819 60.585L120.819 56.4307L119.738 56.4307L119.738 65L120.819 65L120.819 60.6553L124.695 65ZM34.8347 63.2539Q34.1521 62.3252 34.1521 60.7051Q34.1521 59.085 34.8405 58.168Q34.9955 57.9619 35.1886 57.8019Q35.8575 57.248 36.9851 57.248Q38.1126 57.248 38.769 57.8041Q38.9569 57.9633 39.1062 58.168Q39.78 59.085 39.78 60.7051Q39.78 62.3252 39.1062 63.2539Q38.9566 63.461 38.7677 63.6219Q38.1093 64.1826 36.9734 64.1826Q35.8569 64.1826 35.1935 63.6344Q34.9935 63.469 34.8347 63.2539ZM69.7337 63.2539Q69.0511 62.3252 69.0511 60.7051Q69.0511 59.085 69.7395 58.168Q69.8945 57.9619 70.0876 57.8019Q70.7565 57.248 71.8841 57.248Q73.0116 57.248 73.668 57.8041Q73.8559 57.9633 74.0052 58.168Q74.679 59.085 74.679 60.7051Q74.679 62.3252 74.0052 63.2539Q73.8556 63.461 73.6667 63.6219Q73.0083 64.1826 71.8724 64.1826Q70.7559 64.1826 70.0925 63.6344Q69.8925 63.469 69.7337 63.2539Z" fill="#FFFFFF" fill-opacity="1.000000" fill-rule="evenodd"/>
</svg>
